<mxfile host="app.diagrams.net" modified="2023-10-24T15:04:14.054Z" agent="Mozilla/5.0 (Windows NT 10.0; Win64; x64) AppleWebKit/537.36 (KHTML, like Gecko) Chrome/118.0.0.0 Safari/537.36 Edg/118.0.2088.61" etag="GEAcdctNTnVa6o7xdqOX" version="22.0.6" type="github">
  <diagram name="第 1 页" id="wYPudrQ02vbiUr_PILeN">
    <mxGraphModel dx="1426" dy="803" grid="1" gridSize="10" guides="1" tooltips="1" connect="1" arrows="1" fold="1" page="1" pageScale="1" pageWidth="827" pageHeight="1169" math="0" shadow="0">
      <root>
        <mxCell id="0" />
        <mxCell id="1" parent="0" />
        <mxCell id="fNKKCsf2AozCefybyXyu-3" value="" style="edgeStyle=orthogonalEdgeStyle;rounded=0;orthogonalLoop=1;jettySize=auto;html=1;" edge="1" parent="1" source="fNKKCsf2AozCefybyXyu-1" target="fNKKCsf2AozCefybyXyu-2">
          <mxGeometry relative="1" as="geometry" />
        </mxCell>
        <mxCell id="fNKKCsf2AozCefybyXyu-1" value="项目管理" style="rounded=0;whiteSpace=wrap;html=1;" vertex="1" parent="1">
          <mxGeometry x="130" y="210" width="120" height="60" as="geometry" />
        </mxCell>
        <mxCell id="fNKKCsf2AozCefybyXyu-2" value="项目管理" style="rounded=0;whiteSpace=wrap;html=1;" vertex="1" parent="1">
          <mxGeometry x="330" y="210" width="120" height="60" as="geometry" />
        </mxCell>
      </root>
    </mxGraphModel>
  </diagram>
</mxfile>
